<?xml version="1.0" encoding="UTF-8"?>
<svg width="119px" height="113px" viewBox="0 0 119 113" version="1.1" xmlns="http://www.w3.org/2000/svg" xmlns:xlink="http://www.w3.org/1999/xlink">
    <g id="Page-1" stroke="none" stroke-width="1" fill="none" fill-rule="evenodd">
        <g id="Icon" fill="#ffffff">
            <path d="M14.4915585,79.4908864 C19.0390525,54.6034419 35.9399474,37.085996 64.7880426,27.075178 L64.7880224,27.075185 L50.9531729,21.1347478 L53.30191,15.5375 L71.2483264,23.2433707 L71.2600352,23.2167681 L72.7666785,23.895324 L76.6646389,25.5690386 L76.635758,25.6378643 L76.7514793,25.6899824 L66.4283638,49.1441323 L60.9369197,46.670918 L67.0833607,32.7061854 C40.3068083,41.8961192 24.9306692,57.5378037 20.5607569,79.7638273 C28.0095132,81.4829729 33.5641026,88.1747267 33.5641026,96.1677083 C33.5641026,105.463926 26.0505223,113 16.7820513,113 C7.51358029,113 0,105.463926 0,96.1677083 C0,87.6507766 6.30667807,80.6112582 14.4915585,79.4908864 L14.4915585,79.4908864 Z M74.8737673,84.2006944 L84.2623274,74.6270833 L88.9566075,79.4138889 L79.5680473,88.9875 L88.9566075,98.5611111 L84.2623274,103.347917 L74.8737673,93.7743056 L65.4852071,103.347917 L60.790927,98.5611111 L70.1794872,88.9875 L60.790927,79.4138889 L65.4852071,74.6270833 L74.8737673,84.2006944 Z M16.8994083,10.9861111 L26.2879684,1.4125 L30.9822485,6.19930556 L21.5936884,15.7729167 L30.9822485,25.3465278 L26.2879684,30.1333333 L16.8994083,20.5597222 L7.51084813,30.1333333 L2.81656805,25.3465278 L12.2051282,15.7729167 L2.81656805,6.19930556 L7.51084813,1.4125 L16.8994083,10.9861111 L16.8994083,10.9861111 Z M102.217949,33.6645833 C92.9494777,33.6645833 85.4358974,26.1285097 85.4358974,16.8322917 C85.4358974,7.53607367 92.9494777,0 102.217949,0 C111.48642,0 119,7.53607367 119,16.8322917 C119,26.1285097 111.48642,33.6645833 102.217949,33.6645833 Z M102.217949,27.6049583 C108.14977,27.6049583 112.958462,22.7818712 112.958462,16.8322917 C112.958462,10.8827122 108.14977,6.059625 102.217949,6.059625 C96.2861273,6.059625 91.4774359,10.8827122 91.4774359,16.8322917 C91.4774359,22.7818712 96.2861273,27.6049583 102.217949,27.6049583 Z M16.7820513,106.940375 C22.7138727,106.940375 27.5225641,102.117288 27.5225641,96.1677083 C27.5225641,90.2181288 22.7138727,85.3950417 16.7820513,85.3950417 C10.8502298,85.3950417 6.04153846,90.2181288 6.04153846,96.1677083 C6.04153846,102.117288 10.8502298,106.940375 16.7820513,106.940375 Z" id="Shape"></path>
        </g>
    </g>
</svg>